<svg width="100" height="100" viewBox="0 0 38 38" fill="gray" xmlns="http://www.w3.org/2000/svg">
<g filter="url(#filter0_d_144_1431)">
<path fill-rule="evenodd" clip-rule="evenodd" d="M13.375 0H24.625C29.8019 0 34 4.19812 34 9.375V20.625C34 25.8019 29.8019 30 24.625 30H13.375C8.19812 30 4 25.8019 4 20.625V9.375C4 4.19812 8.19812 0 13.375 0ZM24.6251 27.187C28.2438 27.187 31.1876 24.2432 31.1876 20.6245V9.37449C31.1876 5.75574 28.2438 2.81199 24.6251 2.81199H13.375C9.75626 2.81199 6.8125 5.75574 6.8125 9.37449V20.6245C6.8125 24.2432 9.75626 27.187 13.375 27.187H24.6251Z" fill="white" fill-opacity="0.54"/>
<path fill-rule="evenodd" clip-rule="evenodd" d="M11.5 15C11.5 10.8581 14.8581 7.5 19 7.5C23.1419 7.5 26.5 10.8581 26.5 15C26.5 19.1419 23.1419 22.5 19 22.5C14.8581 22.5 11.5 19.1419 11.5 15ZM14.3125 15.0006C14.3125 17.5843 16.4163 19.6881 19 19.6881C21.5838 19.6881 23.6876 17.5843 23.6876 15.0006C23.6876 12.4149 21.5838 10.3131 19 10.3131C16.4163 10.3131 14.3125 12.4149 14.3125 15.0006Z" fill="white" fill-opacity="0.54"/>
<ellipse cx="27.0624" cy="6.93686" rx="0.999413" ry="0.99936" fill="white" fill-opacity="0.54"/>
</g>
</svg>
    